<svg width="2737" height="3902" viewBox="0 0 2737 3902" fill="none" xmlns="http://www.w3.org/2000/svg">
<g filter="url(#filter0_d_381_698)">
<path fill-rule="evenodd" clip-rule="evenodd" d="M2162.73 276H2006.27C2011.29 291.599 2014 308.233 2014 325.5C2014 414.694 1941.69 487 1852.5 487C1763.31 487 1691 414.694 1691 325.5C1691 308.233 1693.71 291.599 1698.73 276H1542.27C1547.29 291.599 1550 308.233 1550 325.5C1550 414.694 1477.69 487 1388.5 487C1299.31 487 1227 414.694 1227 325.5C1227 308.233 1229.71 291.599 1234.73 276H1078.27C1083.29 291.599 1086 308.233 1086 325.5C1086 414.694 1013.69 487 924.5 487C835.306 487 763 414.694 763 325.5C763 308.233 765.71 291.599 770.727 276H614.273C619.29 291.599 622 308.233 622 325.5C622 414.694 549.694 487 460.5 487C371.306 487 299 414.694 299 325.5C299 308.233 301.71 291.599 306.727 276H212C155.667 276 110 321.667 110 378V3677.5C110 3733.83 155.667 3779.5 212 3779.5H1388.5H2565C2621.33 3779.5 2667 3733.83 2667 3677.5V378C2667 321.667 2621.33 276 2565 276H2470.27C2475.29 291.599 2478 308.233 2478 325.5C2478 414.694 2405.69 487 2316.5 487C2227.31 487 2155 414.694 2155 325.5C2155 308.233 2157.71 291.599 2162.73 276Z" fill="#FFE9D6"/>
<path d="M306.728 241L307.251 241.004C318.24 241.168 328.528 246.487 335.013 255.386C341.601 264.425 343.471 276.07 340.046 286.718C336.129 298.894 334 311.915 334 325.5C334 395.364 390.636 452 460.5 452C530.364 452 587 395.364 587 325.5C587 311.915 584.871 298.894 580.954 286.718C577.529 276.07 579.399 264.425 585.987 255.386C592.575 246.346 603.087 241 614.272 241H770.728L771.251 241.004C782.24 241.168 792.528 246.487 799.013 255.386C805.601 264.425 807.471 276.07 804.046 286.718C800.129 298.894 798 311.915 798 325.5C798 395.364 854.636 452 924.5 452C994.364 452 1051 395.364 1051 325.5C1051 311.915 1048.87 298.894 1044.95 286.718C1041.53 276.07 1043.4 264.425 1049.99 255.386C1056.58 246.346 1067.09 241 1078.27 241H1234.73L1235.25 241.004C1246.24 241.168 1256.53 246.487 1263.01 255.386C1269.6 264.425 1271.47 276.07 1268.05 286.718C1264.13 298.894 1262 311.915 1262 325.5C1262 395.364 1318.64 452 1388.5 452C1458.36 452 1515 395.364 1515 325.5C1515 311.915 1512.87 298.894 1508.95 286.718C1505.53 276.07 1507.4 264.425 1513.99 255.386C1520.58 246.346 1531.09 241 1542.27 241H1698.73L1699.25 241.004C1710.24 241.168 1720.53 246.487 1727.01 255.386C1733.6 264.425 1735.47 276.07 1732.05 286.718C1728.13 298.894 1726 311.915 1726 325.5C1726 395.364 1782.64 452 1852.5 452C1922.36 452 1979 395.364 1979 325.5C1979 311.915 1976.87 298.894 1972.95 286.718C1969.53 276.07 1971.4 264.425 1977.99 255.386C1984.58 246.346 1995.09 241 2006.27 241H2162.73L2163.25 241.004C2174.24 241.168 2184.53 246.487 2191.01 255.386C2197.6 264.425 2199.47 276.07 2196.05 286.718C2192.13 298.894 2190 311.915 2190 325.5C2190 395.364 2246.64 452 2316.5 452C2386.36 452 2443 395.364 2443 325.5C2443 311.915 2440.87 298.894 2436.95 286.718C2433.53 276.07 2435.4 264.425 2441.99 255.386C2448.58 246.346 2459.09 241 2470.27 241H2565C2640.66 241 2702 302.337 2702 378V3677.5C2702 3753.16 2640.66 3814.5 2565 3814.5H212C136.337 3814.5 75 3753.16 75 3677.5V378C75 302.337 136.337 241 212 241H306.728Z" stroke="#997F6C" stroke-width="70" stroke-linejoin="round"/>
</g>
<rect x="1000" y="549" width="778" height="103" rx="51.5" fill="#997F6C"/>
<circle cx="1388.5" cy="600.5" r="31.5" fill="#664D3C"/>
<path d="M1377.19 616.398L1602.46 394.684L1607.23 414.216L1377.19 616.398Z" fill="#95735C"/>
<path d="M1479.12 284.286C1482.24 281.144 1486.65 279.665 1491.03 280.299L1541.21 287.557C1544.28 288.001 1547.12 289.455 1549.27 291.689L1724.16 473.22C1726.23 475.375 1727.56 478.139 1727.95 481.105L1735.37 538.127C1735.97 542.768 1734.21 547.404 1730.68 550.472C1727.14 553.54 1722.3 554.634 1717.79 553.383C1548.24 506.379 1485.48 363.079 1475.23 296.233C1474.56 291.86 1476.01 287.427 1479.12 284.286Z" fill="#95735C" stroke="white" stroke-width="27.9243" stroke-linejoin="round"/>
<path d="M1763.01 108.288C1768.85 103.887 1777.12 104.732 1781.95 110.279L1914.71 262.979C1919.35 268.309 1919.27 276.261 1914.53 281.501L1723.93 492.446C1719.63 497.203 1712.65 498.421 1706.99 495.401C1658.32 469.398 1622.99 446.028 1594.96 417.114C1566.81 388.069 1546.75 354.182 1527.41 308.2C1524.98 302.426 1526.69 295.74 1531.6 291.847L1762.73 108.502L1763.01 108.288Z" fill="#664D3C" stroke="white" stroke-width="27.9243" stroke-linejoin="round"/>
<path d="M1754.47 50.601C1754.05 36.5331 1764.34 25.987 1776.35 23.9994L1776.92 23.9108L1777.45 23.8412C1782.98 23.1723 1788.79 24.2806 1794.02 27.4394C1847.04 59.5207 1885.08 89.2766 1915.19 123.844C1945.33 158.443 1966.95 197.201 1987.94 246.481C1991.08 253.857 1990.52 261.71 1987.37 268.145C1983.45 276.142 1975.38 282.183 1965.36 282.759L1904.45 286.259C1900.82 286.468 1897.25 285.252 1894.5 282.87C1829.64 226.647 1798.97 192.468 1758.68 127.702C1757.37 125.609 1756.65 123.209 1756.57 120.745L1754.47 50.601Z" fill="#95735C" stroke="white" stroke-width="27.9243" stroke-linejoin="round"/>
<path d="M1805.82 208.246C1814.03 200.97 1826.63 201.859 1833.74 210.215L1834.08 210.625L1834.37 211.003C1837.6 215.21 1838.86 220.355 1838.26 225.29C1845.1 226.172 1851.74 229.066 1857.23 233.99L1874.07 249.095C1888.52 262.049 1889.75 284.251 1876.82 298.723L1731.42 461.566C1719.89 474.479 1700.68 477.086 1686.12 467.713L1652.42 446.009C1642.49 439.615 1637.02 429.275 1636.36 418.607C1628.9 422.765 1619.32 421.55 1613.15 415.118C1605.73 407.392 1606.06 395.097 1613.88 387.782L1805.43 208.604L1805.82 208.246Z" fill="#997D6A" stroke="white" stroke-width="27.9243" stroke-linejoin="round"/>
<path d="M1766.8 30.7324C1768.95 27.0266 1772.68 24.5118 1776.92 23.9095C1782.6 23.1026 1788.62 24.1762 1794.01 27.438C1847.04 59.5191 1885.08 89.2751 1915.19 123.843C1945.33 158.442 1966.95 197.199 1987.94 246.478C1991.08 253.854 1990.52 261.708 1987.37 268.145C1985.56 271.84 1982.2 274.548 1978.21 275.544C1974.22 276.54 1969.98 275.722 1966.65 273.309C1844.07 184.643 1784.38 89.2138 1765.92 42.9038C1764.33 38.9253 1764.66 34.4384 1766.8 30.7324Z" fill="#E3CEB6" stroke="white" stroke-width="27.9243" stroke-linejoin="round"/>
<path d="M1489.03 294.117L1539.21 301.376L1714.1 482.907L1721.52 539.929C1558.76 494.807 1498.71 357.254 1489.03 294.117Z" fill="#95735C"/>
<path d="M1771.41 119.44L1540.28 302.785C1578.16 392.835 1617.19 431.599 1713.57 483.086L1904.17 272.141L1771.41 119.44Z" fill="#664D3C"/>
<path d="M1768.43 50.1827L1770.53 120.327C1809.95 183.682 1839.62 216.823 1903.65 272.32L1964.56 268.819C1969.23 268.55 1972.99 265.757 1974.83 261.998C1976.3 259 1976.56 255.388 1975.09 251.951C1933.77 154.924 1891.38 102.671 1786.79 39.3847C1784.23 37.8401 1781.47 37.3658 1778.88 37.7339C1773.12 38.5533 1768.23 43.5445 1768.43 50.1827Z" fill="#95735C" stroke="white" stroke-width="1.11697"/>
<path d="M1693.68 455.975L1659.98 434.271C1648.47 426.856 1646.89 410.64 1656.75 401.141L1819.02 244.895C1827.03 237.183 1839.63 236.96 1847.91 244.384L1864.75 259.49C1873.46 267.303 1874.2 280.694 1866.41 289.424L1721 452.267C1714.05 460.056 1702.46 461.629 1693.68 455.975Z" fill="#997D6A"/>
<path d="M1822.65 227.036L1630.59 405.662C1628.49 407.616 1625.21 407.522 1623.22 405.452C1621.19 403.34 1621.28 399.978 1623.42 397.978L1814.97 218.801C1817.36 216.564 1821.15 216.831 1823.2 219.381C1825.05 221.682 1824.81 225.024 1822.65 227.036Z" fill="#997D6A"/>
<path fill-rule="evenodd" clip-rule="evenodd" d="M1778.88 37.7324C1796.28 81.3664 1854.21 174.739 1974.83 261.996C1976.3 258.999 1976.56 255.386 1975.09 251.95C1933.77 154.923 1891.38 102.669 1786.79 39.3833C1784.23 37.8386 1781.47 37.3648 1778.88 37.7324Z" fill="#E3CEB6" stroke="white" stroke-width="1.11697"/>
<defs>
<filter id="filter0_d_381_698" x="0" y="206" width="2737" height="3695.5" filterUnits="userSpaceOnUse" color-interpolation-filters="sRGB">
<feFlood flood-opacity="0" result="BackgroundImageFix"/>
<feColorMatrix in="SourceAlpha" type="matrix" values="0 0 0 0 0 0 0 0 0 0 0 0 0 0 0 0 0 0 127 0" result="hardAlpha"/>
<feOffset dx="-40" dy="52"/>
<feComposite in2="hardAlpha" operator="out"/>
<feColorMatrix type="matrix" values="0 0 0 0 0.413462 0 0 0 0 0.321581 0 0 0 0 0.254438 0 0 0 1 0"/>
<feBlend mode="normal" in2="BackgroundImageFix" result="effect1_dropShadow_381_698"/>
<feBlend mode="normal" in="SourceGraphic" in2="effect1_dropShadow_381_698" result="shape"/>
</filter>
</defs>
</svg>
